<?xml version="1.0" encoding="utf-8"?>
<!-- Generator: Adobe Illustrator 27.4.1, SVG Export Plug-In . SVG Version: 6.00 Build 0)  -->
<svg version="1.1" xmlns="http://www.w3.org/2000/svg" xmlns:xlink="http://www.w3.org/1999/xlink" x="0px" y="0px"
	 viewBox="0 0 436.7 133.2" style="enable-background:new 0 0 436.7 133.2;" xml:space="preserve">
<style type="text/css">
	.st0{fill:#2A306D;}
	.st1{fill:#EF8139;}
	.st2{display:none;}
	.st3{display:inline;fill:#88CB9C;}
	.st4{display:inline;fill:#2A306D;}
	.st5{display:inline;fill:#EF8139;}
	.st6{display:inline;fill:#D5E048;}
	.st7{display:inline;fill:#9FC8C4;}
	.st8{display:inline;fill:#EDADCE;}
	.st9{display:inline;fill:#FFF6ED;}
	.st10{display:inline;fill:#818090;}
	.st11{display:inline;}
	.st12{font-family:'MyriadPro-Regular';}
	.st13{font-size:12px;}
	.st14{font-size:4.3019px;}
	.st15{font-size:5.4632px;}
</style>
<g id="logo">
	<g>
		<path class="st0" d="M211.5,72.4L211.5,72.4c0.2,0.2,0.3,0.4,0.3,0.7c0,0.7-0.6,1-1.2,1c-0.2,0-0.5,0-0.6-0.1
			c-0.1,0-0.2,0.1-0.2,0.3c0,0.2,0.1,0.3,0.4,0.3h1c0.4,0,0.9,0.1,0.9,0.7c0,0.5-0.3,0.9-1.4,0.9c-1,0-1.3-0.3-1.3-0.8
			c0-0.4,0.3-0.6,0.6-0.6v0c-0.2,0-0.4-0.2-0.4-0.4c0-0.2,0.1-0.4,0.3-0.4c-0.3-0.1-0.4-0.4-0.4-0.8c0-0.7,0.5-1,1.2-1
			c0.3,0,0.5,0.1,0.6,0.1l0.6-0.1c0.2,0,0.3,0.1,0.3,0.2c0,0.1-0.1,0.2-0.3,0.2L211.5,72.4z M210,74.9c-0.2,0-0.4,0.2-0.4,0.4
			c0,0.4,0.4,0.5,1,0.5c0.8,0,1.1-0.2,1.1-0.6c0-0.4-0.4-0.4-0.6-0.4H210z M210.6,72.4c-0.5,0-0.9,0.1-0.9,0.7
			c0,0.5,0.3,0.6,0.9,0.6c0.3,0,0.9,0,0.9-0.6C211.5,72.6,211.1,72.4,210.6,72.4z"/>
		<path class="st0" d="M212.8,75v-2.3l0-0.4c0-0.1,0.1-0.2,0.2-0.2c0.1,0,0.1,0.1,0.1,0.2l0,0.6h0c0.1-0.4,0.4-0.7,0.7-0.7
			c0.1,0,0.2,0.1,0.2,0.2c0,0.1-0.1,0.2-0.2,0.2c-0.5,0-0.8,0.4-0.8,0.7V75c0,0.1-0.1,0.2-0.2,0.2C212.9,75.1,212.8,75.1,212.8,75z"
			/>
		<path class="st0" d="M214.5,74.2c0-0.5,0.3-0.9,1.1-0.9c0.3,0,0.7,0.1,0.9,0.4h0v-0.5c0-0.5-0.4-0.7-0.9-0.7
			c-0.5,0-0.6,0.2-0.7,0.3c0,0.1,0,0.3-0.2,0.3c-0.1,0-0.1,0-0.1-0.2c0-0.4,0.3-0.8,1.1-0.8c0.7,0,1.1,0.3,1.1,1.1v1.4l0,0.4
			c0,0.1-0.1,0.2-0.1,0.2c-0.1,0-0.1-0.1-0.2-0.1l0-0.4h0c-0.2,0.3-0.5,0.5-1,0.5C214.9,75.1,214.5,74.8,214.5,74.2z M216.5,74.2
			c0-0.3-0.4-0.5-0.9-0.5c-0.5,0-0.8,0.1-0.8,0.6c0,0.4,0.4,0.6,0.8,0.6C216.1,74.8,216.5,74.5,216.5,74.2z"/>
		<path class="st0" d="M217.7,76.1V73l0-0.7c0-0.1,0.1-0.2,0.1-0.2c0.1,0,0.1,0.1,0.1,0.1l0,0.7h0c0.1-0.5,0.5-0.8,1-0.8
			c0.6,0,1.2,0.4,1.2,1.5c0,1.1-0.6,1.6-1.2,1.6c-0.4,0-0.9-0.3-1-0.8h0v0.7l0,1c0,0.1-0.1,0.2-0.1,0.2
			C217.8,76.2,217.7,76.2,217.7,76.1z M220,73.6c0-0.7-0.3-1.2-1-1.2c-0.8,0-1,0.7-1,1.2c0,0.5,0.3,1.2,1,1.2
			C219.7,74.8,220,74.2,220,73.6z"/>
		<path class="st0" d="M221,75v-3.7c0-0.1,0.1-0.2,0.2-0.2c0.1,0,0.2,0.1,0.2,0.2v0.8c0,0.2,0,0.5,0,0.7h0c0.1-0.5,0.6-0.7,1-0.7
			c0.6,0,1,0.3,1,1V75c0,0.1-0.1,0.2-0.2,0.2c-0.1,0-0.2-0.1-0.2-0.2v-1.9c0-0.4-0.3-0.7-0.7-0.7c-0.5,0-0.9,0.4-0.9,0.7V75
			c0,0.1-0.1,0.2-0.2,0.2C221.1,75.1,221,75.1,221,75z"/>
		<path class="st0" d="M224.3,75v-2.5h-0.2c-0.1,0-0.2-0.1-0.2-0.2c0-0.1,0.1-0.2,0.2-0.2h0.4c0.1,0,0.1,0.1,0.1,0.2V75
			c0,0.1-0.1,0.2-0.2,0.2C224.4,75.1,224.3,75.1,224.3,75z M224.2,71.5c0-0.2,0.1-0.3,0.3-0.3c0.2,0,0.3,0.1,0.3,0.3
			s-0.1,0.3-0.3,0.3C224.3,71.7,224.2,71.6,224.2,71.5z"/>
		<path class="st0" d="M225.4,73.6c0-0.9,0.5-1.5,1.3-1.5c0.7,0,1.1,0.4,1.1,0.7c0,0.1-0.1,0.2-0.1,0.2c-0.1,0-0.1-0.1-0.3-0.3
			c-0.1-0.1-0.3-0.3-0.7-0.3c-0.6,0-1,0.3-1,1.2c0,0.8,0.5,1.2,1.1,1.2c0.4,0,0.5-0.1,0.7-0.3c0.1-0.1,0.2-0.3,0.3-0.3
			c0.1,0,0.1,0.1,0.1,0.2c0,0.3-0.4,0.7-1.1,0.7C226,75.1,225.4,74.6,225.4,73.6z"/>
		<path class="st0" d="M230,73.6c0-1.1,0.6-1.6,1.2-1.6c0.4,0,0.9,0.3,1,0.8h0v-0.7v-0.8c0-0.1,0.1-0.2,0.1-0.2
			c0.1,0,0.1,0.1,0.1,0.2v3l0.1,0.6c0,0.1-0.1,0.2-0.1,0.2c-0.1,0-0.1-0.1-0.1-0.1l-0.1-0.7h0c-0.1,0.5-0.6,0.8-1,0.8
			C230.6,75.1,230,74.8,230,73.6z M232.2,73.6c0-0.5-0.3-1.2-1-1.2c-0.7,0-0.9,0.6-0.9,1.2c0,0.7,0.3,1.2,1,1.2
			C232,74.8,232.2,74.1,232.2,73.6z"/>
		<path class="st0" d="M235.9,74.4c0,0.3-0.5,0.7-1.2,0.7c-0.9,0-1.4-0.5-1.4-1.6c0-1,0.5-1.5,1.3-1.5c0.7,0,1.3,0.5,1.3,1.4
			c0,0.2-0.1,0.3-0.3,0.3h-2c0,0.7,0.5,1,1,1c0.5,0,0.7-0.2,0.8-0.3c0.1-0.1,0.2-0.2,0.3-0.2C235.8,74.3,235.9,74.3,235.9,74.4z
			 M233.6,73.5l2-0.1c0-0.6-0.3-1-1-1C234.2,72.4,233.7,72.7,233.6,73.5z"/>
		<path class="st0" d="M236.5,74.4c0-0.1,0.1-0.2,0.2-0.2c0.1,0,0.2,0.1,0.2,0.2c0.1,0.2,0.3,0.3,0.8,0.3c0.7,0,0.9-0.3,0.9-0.6
			c0-0.4-0.6-0.4-1-0.5c-0.7-0.1-1-0.3-1-0.8c0-0.6,0.5-0.9,1.1-0.9c0.6,0,1.1,0.3,1.1,0.8c0,0.1-0.1,0.2-0.2,0.2
			c-0.1,0-0.1,0-0.2-0.2c-0.1-0.2-0.3-0.4-0.8-0.4c-0.3,0-0.8,0.1-0.8,0.5c0,0.4,0.2,0.4,0.8,0.5c0.6,0.1,1.2,0.1,1.2,0.8
			c0,0.7-0.6,1-1.2,1C236.8,75.1,236.5,74.7,236.5,74.4z"/>
		<path class="st0" d="M239.7,75v-2.5h-0.2c-0.1,0-0.2-0.1-0.2-0.2c0-0.1,0.1-0.2,0.2-0.2h0.4c0.1,0,0.1,0.1,0.1,0.2V75
			c0,0.1-0.1,0.2-0.2,0.2C239.8,75.1,239.7,75.1,239.7,75z M239.6,71.5c0-0.2,0.1-0.3,0.3-0.3c0.2,0,0.3,0.1,0.3,0.3
			s-0.1,0.3-0.3,0.3C239.7,71.7,239.6,71.6,239.6,71.5z"/>
		<path class="st0" d="M243.1,72.4L243.1,72.4c0.2,0.2,0.3,0.4,0.3,0.7c0,0.7-0.6,1-1.2,1c-0.2,0-0.5,0-0.6-0.1
			c-0.1,0-0.2,0.1-0.2,0.3c0,0.2,0.1,0.3,0.4,0.3h1c0.4,0,0.9,0.1,0.9,0.7c0,0.5-0.3,0.9-1.4,0.9c-1,0-1.3-0.3-1.3-0.8
			c0-0.4,0.3-0.6,0.6-0.6v0c-0.2,0-0.4-0.2-0.4-0.4c0-0.2,0.1-0.4,0.3-0.4c-0.3-0.1-0.4-0.4-0.4-0.8c0-0.7,0.5-1,1.2-1
			c0.3,0,0.5,0.1,0.6,0.1l0.6-0.1c0.2,0,0.3,0.1,0.3,0.2c0,0.1-0.1,0.2-0.3,0.2L243.1,72.4z M241.6,74.9c-0.2,0-0.4,0.2-0.4,0.4
			c0,0.4,0.4,0.5,1,0.5c0.8,0,1.1-0.2,1.1-0.6c0-0.4-0.4-0.4-0.6-0.4H241.6z M242.2,72.4c-0.5,0-0.9,0.1-0.9,0.7
			c0,0.5,0.3,0.6,0.9,0.6c0.3,0,0.9,0,0.9-0.6C243.1,72.6,242.7,72.4,242.2,72.4z"/>
		<path class="st0" d="M244.4,75v-2.2l0-0.6c0-0.1,0.1-0.2,0.2-0.2c0.1,0,0.1,0.1,0.1,0.2l0,0.6h0c0.1-0.5,0.6-0.7,1-0.7
			c0.6,0,1,0.3,1,1V75c0,0.1-0.1,0.2-0.2,0.2c-0.1,0-0.2-0.1-0.2-0.2v-1.9c0-0.4-0.3-0.7-0.7-0.7c-0.5,0-0.9,0.4-0.9,0.7V75
			c0,0.1-0.1,0.2-0.2,0.2C244.5,75.1,244.4,75.1,244.4,75z"/>
		<path class="st0" d="M250,74.4c0,0.3-0.5,0.7-1.2,0.7c-0.9,0-1.4-0.5-1.4-1.6c0-1,0.5-1.5,1.3-1.5c0.7,0,1.3,0.5,1.3,1.4
			c0,0.2-0.1,0.3-0.3,0.3h-2c0,0.7,0.5,1,1,1c0.5,0,0.7-0.2,0.8-0.3c0.1-0.1,0.2-0.2,0.3-0.2C250,74.3,250,74.3,250,74.4z
			 M247.8,73.5l2-0.1c0-0.6-0.3-1-1-1C248.3,72.4,247.8,72.7,247.8,73.5z"/>
		<path class="st0" d="M250.8,75v-2.3l0-0.4c0-0.1,0.1-0.2,0.2-0.2c0.1,0,0.1,0.1,0.1,0.2l0,0.6h0c0.1-0.4,0.4-0.7,0.7-0.7
			c0.1,0,0.2,0.1,0.2,0.2c0,0.1-0.1,0.2-0.2,0.2c-0.5,0-0.8,0.4-0.8,0.7V75c0,0.1-0.1,0.2-0.2,0.2C250.9,75.1,250.8,75.1,250.8,75z"
			/>
	</g>
	<g>
		<path class="st1" d="M175,66.5c0-0.1,0-0.1,0-0.2c-0.1,0-0.2,0-0.2,0c-0.6,0-1,0.3-1,0.9c0,0.5,0.3,0.8,0.7,0.8
			c0.7,0,0.9-0.5,1.5-0.5c0.3,0,0.5,0.2,0.5,0.6c0,0.7-0.9,1.4-2.3,1.4c-1.4,0-2.2-1-2.2-2c0-1.5,1.2-2.6,2.7-2.6
			c1.4,0,1.9,0.5,1.9,1.2c0,0.6-0.4,1-0.9,1C175.3,67.2,175,67,175,66.5z"/>
		<path class="st1" d="M200.8,65c-0.7,0-1.5,1.3-1.5,1.3c0.1-0.2,0.1-0.5,0.1-0.7c0-0.4-0.2-0.6-0.5-0.6c-0.3,0-0.4,0.1-0.7,0.1
			c-0.3,0-0.5-0.1-0.7-0.1c-0.4,0-0.7,0.2-0.8,0.6c-0.3-0.4-0.9-0.7-1.8-0.7c-1.6,0-2.8,1.1-2.8,2.5c0,0,0.1,0.5-0.6,0.5
			c-0.1,0-0.2-0.1-0.2-0.2c0-0.2,0.4-1,0.4-1.6c0-0.8-0.5-1.2-1.3-1.2c-0.8,0-1.2,0.3-1.6,0.7h-0.1l0.3-1.7c0.1-0.5,0.1-0.6,0.1-0.6
			c0-0.3-0.2-0.4-0.5-0.4c-0.2,0-0.4,0.1-0.7,0.1c-0.3,0-0.5-0.1-0.7-0.1c-0.6,0-0.8,0.4-0.8,0.9c0,0.5,0.3,0.8,0.6,0.8
			c0.1,0,0.2,0,0.3,0c0.2,0,0.2,0.1,0.2,0.3l-0.4,2.6c-0.1-0.2-0.2-0.4-0.6-0.4c-0.4,0-0.6,0.2-0.7,0.6c-0.1,0.3-0.2,0.4-0.4,0.4
			c-0.2,0-0.2-0.1-0.2-0.3l0.2-1.1c0-0.1,0.1-0.1,0.2-0.1c0.2,0,0.4,0.1,0.6,0.1c0.5,0,0.9-0.4,0.9-0.9c0-0.4-0.2-0.7-0.7-0.7
			c-0.2,0-0.5,0-0.5,0c-0.1,0-0.1,0-0.1-0.1l0.1-0.7c0.1-0.6-0.2-0.8-0.7-0.8c-0.5,0-0.9,0.3-1,0.8l-0.1,0.7c0,0.1-0.1,0.1-0.1,0.1
			c-0.1,0-0.2,0-0.3,0c-0.5,0-0.8,0.4-0.8,0.9c0,0.4,0.2,0.7,0.5,0.7c0.1,0,0.2,0,0.3,0c0.1,0,0.1,0,0.1,0.1c0,0.1-0.1,0.4-0.1,0.7
			c-0.1-0.1-0.8-0.3-0.9,0.1c-0.1,0.3-0.5,0.6-0.6,0.6c-0.2,0-0.2-0.1-0.2-0.2c0-0.2,0.2-0.7,0.3-1.2c0.1-0.3,0.3-0.8,0.3-1.1
			c0-0.3-0.2-0.5-0.7-0.5c-0.4,0-0.7,0.1-0.9,0.7h0c-0.2-0.5-0.9-0.7-1.4-0.7c-1.3,0-2.3,1-2.3,2.5c0,1,0.6,2,1.9,2
			c0.6,0,1.2-0.2,1.5-0.9h0c0,0.6,0.6,0.9,1.3,0.9c0.9,0,1.5-0.4,1.8-1c0.2,0.7,0.8,1,1.6,1c0.8,0,1.4-0.3,1.7-0.8
			c0,0.1,0,0.1,0,0.2c0,0.4,0.2,0.7,0.8,0.7c0.6,0,1-0.2,1.1-0.9l0.2-1.3c0.1-0.6,0.4-0.8,0.7-0.8c0.3,0,0.4,0.2,0.4,0.4
			c0,0.4-0.3,1-0.3,1.5c0,0.8,0.5,1.1,1.3,1.1c0.9,0,1.4-0.4,1.6-0.8c0.4,0.5,1.1,0.8,2,0.8c1.3,0,2.3-0.5,2.3-1.2
			c0-0.4-0.2-0.6-0.5-0.6c-0.5,0-0.7,0.3-1.4,0.3c-0.4,0-0.7-0.1-0.8-0.4c0.1,0,0.3,0,0.4,0c1.2,0,2.1-0.4,2.4-1.1
			c0.1,0.1,0.3,0.2,0.4,0.2c0.1,0,0.2,0,0.3,0c0.2,0,0.2,0.1,0.2,0.4l-0.1,0.7c-0.1,0.4-0.2,0.7-0.2,1.1c0,0.4,0.2,0.7,0.8,0.7
			c0.6,0,1-0.2,1.1-0.9c0.1-0.3,0.1-0.7,0.2-1.5c0.1-0.4,0.3-0.6,0.5-0.6c0.4,0,0.5,0.4,1.1,0.4c0.4,0,0.9-0.4,0.9-1.1
			C201.9,65.4,201.5,65,200.8,65z M179.5,68.2c-0.5,0-0.8-0.3-0.8-0.8c0-0.6,0.3-1,0.9-1c0.5,0,0.8,0.3,0.8,0.8
			C180.4,67.8,180,68.2,179.5,68.2z M194.2,66.9c-0.1,0-0.2,0-0.3,0c0.1-0.4,0.4-0.7,0.8-0.7c0.2,0,0.4,0.1,0.4,0.3
			C195.1,66.7,194.7,66.9,194.2,66.9z"/>
		<path class="st1" d="M201.8,68.6c0-0.4,0.3-1.2,0.3-1.5c0.1-1.3,0.2-1.7,0.4-1.9c0.2-0.3,0.6-0.1,0.8-0.1c0.4,0,0.7,0.2,0.7,0.6
			c0,0.3-0.1,0.6-0.2,1c-0.1,0.4-0.3,1-0.3,1.1c0,0.1,0,0.2,0.2,0.2c0.3,0,0.2-0.5,0.7-0.5c0.3,0,0.5,0.1,0.5,0.5
			c0,0.7-0.4,1.5-1.8,1.5C202.3,69.7,201.8,69.3,201.8,68.6z M203.6,62.9c0.7,0,1,0.3,1,0.8c0,0.6-0.3,1-1.2,1c-0.7,0-1-0.3-1-0.8
			C202.4,63.3,202.8,62.9,203.6,62.9z"/>
		<path class="st1" d="M215,67.9c-0.5,0-0.7,0.3-1.4,0.3c-0.4,0-0.7-0.1-0.8-0.4c0.1,0,0.3,0,0.4,0c1.3,0,2.4-0.5,2.4-1.4
			c0-0.8-0.7-1.3-2-1.3c-1.6,0-2.9,1.1-2.8,2.5c0.1,0.8-0.7,1-0.8,0.4c0-0.3,0.4-0.9,0.4-1.6c0-0.7-0.5-1.2-1.4-1.2
			c-0.7,0-1.6,0.7-1.6,0.7c0-0.1,0-0.2,0-0.3c0-0.3-0.2-0.4-0.5-0.4c-0.2,0-0.4,0.1-0.7,0.1c-0.3,0-0.5-0.1-0.7-0.1
			c-0.5,0-0.8,0.4-0.8,0.9c0,0.5,0.3,0.8,0.6,0.8c0.1,0,0.2,0,0.3,0c0.2,0,0.2,0.1,0.2,0.3l-0.2,0.8c-0.1,0.3-0.2,0.7-0.2,1.1
			c0,0.4,0.2,0.7,0.8,0.7c0.6,0,0.9-0.2,1-0.9l0.2-1.3c0.1-0.6,0.4-0.8,0.7-0.8c0.3,0,0.4,0.2,0.4,0.4c0,0.4-0.3,0.9-0.3,1.5
			c0,0.7,0.5,1,1.3,1c0.9,0,1.4-0.4,1.6-0.8c0.4,0.5,1.1,0.8,2.1,0.8c1.3,0,2.3-0.5,2.3-1.2C215.5,68.1,215.3,67.9,215,67.9z
			 M213.5,66.2c0.2,0,0.4,0.1,0.4,0.3c0,0.3-0.5,0.4-0.9,0.4c-0.1,0-0.2,0-0.3,0C212.8,66.5,213.1,66.2,213.5,66.2z"/>
	</g>
	<g>
		<path class="st1" d="M218.8,67.6c0-1.4,1.2-2.5,2.8-2.5c1.2,0,2,0.4,2,1.3c0,0.9-1.1,1.4-2.4,1.4c-0.1,0-0.3,0-0.4,0
			c0.1,0.3,0.4,0.4,0.8,0.4c0.8,0,1-0.3,1.5-0.3c0.3,0,0.5,0.2,0.5,0.6c0,0.7-1,1.2-2.3,1.2C219.7,69.6,218.8,68.9,218.8,67.6z
			 M221,66.9c0.4,0,0.9-0.1,0.9-0.4c0-0.2-0.2-0.3-0.4-0.3c-0.4,0-0.7,0.3-0.8,0.7C220.8,66.9,220.9,66.9,221,66.9z"/>
		<path class="st1" d="M223.8,67.7c0-1.6,1.1-2.6,2.6-2.6c0.3,0,0.8,0.1,1.1,0.2h0.1c0-0.1,0.1-0.3,0.1-0.5h-0.4
			c-0.3,0-0.6-0.3-0.6-0.8c0-0.6,0.4-1,0.9-1c0.2,0,0.3,0,0.5,0c0.3,0,0.7-0.1,0.9-0.1c0.4,0,0.5,0.2,0.5,0.4c0,0.3-0.7,4.2-0.7,4.5
			c0,0.1,0,0.2,0.2,0.2c0.2,0,0.3-0.1,0.4-0.4c0.1-0.4,0.2-0.6,0.7-0.6c0.4,0,0.6,0.3,0.6,0.6c0,1.1-0.6,1.9-1.9,1.9
			c-0.7,0-1.2-0.3-1.3-0.9h0c-0.3,0.7-0.9,0.9-1.5,0.9C224.6,69.6,223.8,68.8,223.8,67.7z M226.4,68.3c0.5,0,0.9-0.4,0.9-1
			c0-0.4-0.3-0.8-0.8-0.8c-0.5,0-0.9,0.4-0.9,1C225.7,68,225.9,68.3,226.4,68.3z"/>
		<g>
			<path class="st1" d="M241.3,67.6c-0.5,0-0.4,0.5-0.7,0.5c-0.1,0-0.2-0.1-0.2-0.2c0-0.2,0.2-0.8,0.3-1.1c0.1-0.4,0.2-0.7,0.2-1
				c0-0.4-0.3-0.6-0.7-0.6c-0.2,0-0.5,0.1-0.8,0.1c-0.3,0-0.3-0.1-0.7-0.1c-0.3,0-0.5,0.2-0.7,0.4c-0.2-0.3-0.6-0.4-1-0.4
				c-0.8,0-1.2,0.4-1.2,1.1c0,0.4,0.2,0.7,0.5,0.7c0.1,0,0.2,0,0.2,0c0.1,0,0.1,0.1,0.1,0.2c0,0.5-0.3,1-0.9,1
				c-0.4,0-0.6-0.2-0.6-0.5c0-0.6,0.3-1.3,0.3-1.8c0-0.4-0.2-0.6-0.7-0.6c-0.8,0-0.9,0.2-1.2,1.3l-0.2,1c-0.1,0.4-0.2,0.6-0.5,0.6
				c-0.2,0-0.3-0.2-0.3-0.4c0-0.5,0.4-1.5,0.4-1.9c0-0.4-0.3-0.6-0.7-0.6c-0.3,0-0.5,0-0.7,0c-0.2,0-0.4,0-0.7,0
				c-0.5,0-0.8,0.3-0.8,0.9c0,0.5,0.2,0.8,0.6,0.8c0.1,0,0.2,0,0.3,0c0.1,0,0.1,0,0.1,0.1c-0.1,0.3-0.2,0.6-0.2,0.9
				c-0.3,1.3,0.3,1.9,1.4,1.9c0.8,0,1.5-0.3,1.7-1.1h0.1c0.1,0.7,0.7,1.1,1.6,1.1c1.7,0,2.6-1.5,2.7-2.8c0.1,0,0.1,0,0.2,0
				c0.1,0,0.2,0,0.3,0c0.1,0,0.2,0,0.2,0.2c0,0.3-0.3,1.1-0.3,1.5c0,0.7,0.5,1.1,1.3,1.1c1.4,0,1.8-0.9,1.8-1.5
				C241.8,67.7,241.6,67.6,241.3,67.6z"/>
			<path class="st1" d="M240,64.7c0.8,0,1.2-0.4,1.2-1c0-0.5-0.3-0.8-1-0.8c-0.8,0-1.2,0.4-1.2,1C239,64.4,239.2,64.7,240,64.7z"/>
		</g>
		<path class="st1" d="M249.9,66.1c0.4,0,0.6,0.1,0.6,0.3c0.1,0.2,0.3,0.4,0.7,0.4c0.4,0,0.8-0.3,0.8-0.7c0-0.9-1.4-1-2.2-1
			c-1.2,0-2.2,0.5-2.2,1.4c0,0.9,0.9,1.2,2.1,1.4c0.3,0.1,0.4,0.1,0.4,0.3c0,0.2-0.2,0.3-0.6,0.3h0c-0.5,0-0.7-0.1-0.7-0.4
			s-0.3-0.4-0.7-0.4c-0.1,0-0.3,0.1-0.4,0.2c-0.4,0.4-0.5,0.5-0.9,0.4c-0.2,0-0.2-0.2-0.1-0.4c0.1-0.3,0.4-0.9,0.4-1.6
			c0-0.7-0.5-1.2-1.4-1.2c-0.7,0-1.2,0.3-1.5,0.7h-0.1c0-0.1,0-0.2,0-0.3c0-0.3-0.2-0.4-0.5-0.4c-0.2,0-0.4,0.1-0.7,0.1
			c-0.3,0-0.5-0.1-0.7-0.1c-0.5,0-0.8,0.4-0.8,0.9c0,0.5,0.3,0.8,0.6,0.8c0.1,0,0.2,0,0.3,0c0.2,0,0.2,0.1,0.2,0.3l-0.2,0.8
			c-0.1,0.3-0.2,0.7-0.2,1.1c0,0.4,0.2,0.7,0.8,0.7c0.6,0,0.9-0.2,1-0.9l0.2-1.3c0.1-0.6,0.4-0.8,0.7-0.8c0.3,0,0.4,0.2,0.4,0.4
			c0,0.4-0.3,0.9-0.3,1.5c0,0.7,0.5,1,1.3,1c0.7,0,1.1-0.2,1.4-0.5c0.5,0.4,1.3,0.5,1.9,0.5c1.2,0,2.4-0.4,2.4-1.6
			c0-0.7-0.4-1.1-2-1.4c-0.3-0.1-0.4-0.1-0.4-0.3C249.5,66.2,249.7,66.1,249.9,66.1z"/>
	</g>
</g>
<g id="Layer_1" class="st2">
	<circle class="st3" cx="-147.2" cy="-192.5" r="18"/>
	<circle class="st4" cx="-269.1" cy="-198.1" r="18"/>
	<circle class="st5" cx="-269.1" cy="-180.1" r="18"/>
	<circle class="st6" cx="-207.9" cy="-198.1" r="18"/>
	<circle class="st7" cx="-207.9" cy="-174.6" r="18"/>
	<circle class="st8" cx="-207.9" cy="-156.6" r="18"/>
	<circle class="st9" cx="-269.1" cy="-162.1" r="18"/>
	<circle class="st10" cx="-147.2" cy="-168.1" r="17.4"/>
	<rect x="37.4" y="51.9" class="st10" width="18" height="18"/>
	<rect x="117" y="79.4" class="st10" width="12" height="12"/>
	<rect x="225.6" y="52" class="st10" width="12" height="12"/>
	<rect x="237.7" y="69.9" class="st10" width="6" height="6"/>
	<rect x="55.4" y="42.9" class="st10" width="9" height="9"/>
	<text transform="matrix(1 0 0 1 43.1479 63.7124)" class="st11 st12 st13">x</text>
	<text transform="matrix(1 0 0 1 56.0201 48.8248)" class="st11 st12 st14">x1/2</text>
	<text transform="matrix(1 0 0 1 240.2682 74.5145)" class="st11 st12 st15">X1/3</text>
	<text transform="matrix(1 0 0 1 130.6296 89.2355)" class="st11 st12 st13">X1 1/2</text>
	<text transform="matrix(1 0 0 1 215.2128 48.8247)" class="st11 st12 st13">X1 1/2</text>
</g>
</svg>
