<?xml version="1.0" encoding="utf-8"?>
<!-- Generator: Adobe Illustrator 27.4.0, SVG Export Plug-In . SVG Version: 6.00 Build 0)  -->
<svg version="1.1" id="Layer_1" xmlns="http://www.w3.org/2000/svg" xmlns:xlink="http://www.w3.org/1999/xlink" x="0px" y="0px"
	 viewBox="0 0 360 130" style="enable-background:new 0 0 360 130;" xml:space="preserve">
<style type="text/css">
	.st0{fill:#A386A6;}
</style>
<g>
	<g>
		<path class="st0" d="M13.3,76.4L8,77.8L7.2,61.7h0.5c1.8,12.7,11.6,15.6,17.1,15.6c4.8,0,9.7-1.4,9.7-5.3
			c0-8.2-27.3-7.3-27.3-22.1c0-9.2,10-12.7,19.2-12.7c3,0,6.7,0.6,9.4,1.4l4.6-1.3l0.8,13.3h-0.5c-1.8-9.4-8.4-12.9-14.2-12.9
			c-5.3,0-8.3,2.5-8.3,5.3c0,8.6,26.8,6.3,26.8,21.1c0,9.6-9.5,13.7-20.1,13.7C21.9,77.9,17.9,77.4,13.3,76.4z"/>
		<path class="st0" d="M106.2,37.8h16.4v0.6c-5.3,0-7.6,4-11.8,12.5L97,78.9L83.5,51.1L69.9,78.8L53.8,46.7
			c-2.9-5.8-4.9-8.3-9.2-8.3v-0.6h26.8v0.6c-5.5,0-3.7,4.8-1.4,9.5l7.1,14.6l6-12.1l-1.8-3.6c-2.9-5.8-3.8-8.3-7.4-8.3v-0.6h25.8
			v0.6c-5.2,0-4.4,4.8-2.2,9.5l6.8,14.6L110,51c3.3-6.7,4.3-12.5-3.8-12.5L106.2,37.8z"/>
		<path class="st0" d="M157.7,63.2c-3.3,8-10.1,14.7-20.6,14.7c-10.4,0-19.3-7.4-19.3-19.7s8.7-21,21.9-21
			c12.9,0,19.7,6.5,17.3,16.1h-25c0.3,10.7,6,15.3,13.2,15.3c3.8,0,9.3-1.4,12-5.6L157.7,63.2z M139.7,37.8c-6.5,0-7.7,9.1-7.7,14.5
			c0,0.1,0,0.2,0,0.2h11.7C144.9,47.8,145.6,37.8,139.7,37.8L139.7,37.8z"/>
		<path class="st0" d="M201.5,63.2c-3.3,8-10.1,14.7-20.6,14.7s-19.3-7.4-19.3-19.7s8.7-21,21.9-21c12.9,0,19.7,6.5,17.3,16.1h-25
			c0.3,10.7,6,15.3,13.2,15.3c3.8,0,9.3-1.4,12-5.6L201.5,63.2z M183.6,37.8c-6.5,0-7.7,9.1-7.7,14.5c0,0.1,0,0.2,0,0.2h11.7
			C188.7,47.8,189.4,37.8,183.6,37.8L183.6,37.8z"/>
		<path class="st0" d="M208.9,68V38.4h-5.3v-0.6h1.1c6.2,0,11-1.1,13.8-3.5c2-2.6,3.4-7.8,3.7-11.5h0.6v15h8.3v0.6h-8.3v27.1
			c0,2.9,0.1,7.4,3.8,7.4c2,0,3.8-1.1,5.5-2.7l0.3,0.5c-3.9,4.3-8.9,7.3-14.7,7.3C211.8,77.9,208.9,73.8,208.9,68z"/>
		<path class="st0" d="M232.2,77.3v-0.6c5.3,0,6-1.5,6-8.7V49.2c0-5-0.3-7.7-6.8-6.2l-0.2-0.6l21-5L252,46v22c0,7.2,0.7,8.7,6,8.7
			v0.6C258,77.3,232.2,77.3,232.2,77.3z M237,26.1c0-4.5,3.8-8.2,8.3-8.2c4.6,0,8.3,3.6,8.3,8.2s-3.7,8.3-8.3,8.3
			C240.7,34.5,237,30.7,237,26.1z"/>
		<path class="st0" d="M266.5,76.4l-5.3,1.4l-0.8-16.1h0.5c1.8,12.7,11.6,15.6,17.1,15.6c4.8,0,9.7-1.4,9.7-5.3
			c0-8.2-27.3-7.3-27.3-22.1c0-9.2,10-12.7,19.2-12.7c3,0,6.7,0.6,9.4,1.4l4.6-1.3l0.8,13.3h-0.5c-1.8-9.4-8.4-12.9-14.2-12.9
			c-5.3,0-8.3,2.5-8.3,5.3c0,8.6,26.8,6.3,26.8,21.1c0,9.6-9.5,13.7-20.1,13.7C275.1,77.9,271.1,77.4,266.5,76.4z"/>
		<path class="st0" d="M344,68c0,7.2,0.7,8.7,6,8.7v0.6h-24.2v-0.6c4.1,0,4.2-2,4.2-8.7V49.9c0-2,0-6.7-4.5-6.7
			c-2.1,0-4.6,1-6.8,2.9V68c0,5.4,0.1,8.7,4.3,8.7v0.6h-24.3v-0.6c5.3,0,6-1.5,6-8.7V29.8c0-5-0.3-7.7-6.8-6.2l-0.1-0.6l21-5
			l-0.3,27.5c7.5-6.1,12.1-8.2,16.7-8.2c6.1,0,8.8,3.5,8.8,11.2L344,68L344,68z"/>
	</g>
	<g>
		<path class="st0" d="M25.9,108.8l-5.8-6.9l-2.7,2.6v4.4h-1.6v-20h1.6v13.8l8.5-8.3H28l-6.8,6.5l6.7,8L25.9,108.8L25.9,108.8z"/>
		<path class="st0" d="M32.1,90.8c0-0.7,0.6-1.2,1.2-1.2c0.7,0,1.2,0.5,1.2,1.2S34,92,33.3,92C32.7,92.1,32.1,91.5,32.1,90.8z
			 M32.5,108.8V94.3h1.6v14.5H32.5z"/>
		<path class="st0" d="M50.2,108.8V99c0-2.8-1.4-3.6-3.5-3.6c-1.9,0-3.8,1.2-4.7,2.5v11h-1.6V94.3H42v2.2c1.1-1.3,3.1-2.6,5.2-2.6
			c2.9,0,4.6,1.4,4.6,4.7v10.1h-1.6V108.8z"/>
		<path class="st0" d="M68.9,108.8v-2.3c-1,1.5-2.9,2.7-5,2.7c-3.8,0-6.5-2.9-6.5-7.6c0-4.6,2.6-7.6,6.5-7.6c2.1,0,3.9,1.1,5,2.7
			v-7.9h1.6v20C70.5,108.8,68.9,108.8,68.9,108.8z M68.9,105.2V98c-0.8-1.4-2.7-2.6-4.8-2.6c-3.2,0-5.1,2.7-5.1,6.2s1.9,6.2,5.1,6.2
			C66.2,107.8,68,106.6,68.9,105.2z"/>
		<path class="st0" d="M86.1,108.8v-1.7c-1.3,1.4-2.9,2.1-4.9,2.1c-2.5,0-5.1-1.7-5.1-4.8c0-3.2,2.6-4.8,5.1-4.8
			c2,0,3.7,0.7,4.9,2.1v-2.9c0-2.2-1.7-3.3-3.9-3.3c-1.8,0-3.2,0.6-4.6,2.1l-0.9-1.1c1.5-1.6,3.2-2.4,5.6-2.4c2.9,0,5.3,1.4,5.3,4.7
			V109h-1.5V108.8z M86.1,106v-3.2c-1-1.4-2.6-2-4.4-2c-2.4,0-4,1.5-4,3.6c0,2,1.6,3.6,4,3.6C83.4,108,85.1,107.3,86.1,106z"/>
		<path class="st0" d="M102,106.9l0.9-1.1c0.9,1.2,2.6,2.1,4.7,2.1c2.4,0,3.9-1.3,3.9-2.9c0-4-9.2-1.7-9.2-6.9c0-2.2,1.9-4,5.2-4
			c2.5,0,4.1,1,5.2,2.1l-0.9,1.1c-0.8-1.1-2.4-1.9-4.3-1.9c-2.3,0-3.6,1.1-3.6,2.6c0,3.6,9.1,1.4,9.1,7c0,2.3-1.8,4.3-5.4,4.3
			C105.3,109.2,103.5,108.5,102,106.9z"/>
		<path class="st0" d="M131,108.8l-4-12.4l-4.1,12.4h-1.5l-4.7-14.5h1.7l3.8,12.3l4.1-12.3h1.3l4.1,12.3l3.8-12.3h1.7l-4.7,14.5H131
			z"/>
		<path class="st0" d="M140.9,101.6c0-4.2,2.9-7.6,7-7.6c4.4,0,6.8,3.5,6.8,7.7v0.4h-12.1c0.2,3.2,2.3,5.8,5.7,5.8
			c1.8,0,3.5-0.7,4.7-2l0.8,1c-1.4,1.5-3.3,2.3-5.7,2.3C143.9,109.2,140.9,106,140.9,101.6z M147.9,95.3c-3.4,0-5.1,3-5.3,5.5h10.5
			C153.1,98.4,151.5,95.3,147.9,95.3z"/>
		<path class="st0" d="M159.5,101.6c0-4.2,2.9-7.6,7-7.6c4.4,0,6.8,3.5,6.8,7.7v0.4h-12.1c0.2,3.2,2.3,5.8,5.7,5.8
			c1.8,0,3.5-0.7,4.7-2l0.8,1c-1.4,1.5-3.3,2.3-5.7,2.3C162.5,109.2,159.5,106,159.5,101.6z M166.4,95.3c-3.4,0-5.1,3-5.3,5.5h10.5
			C171.7,98.4,170,95.3,166.4,95.3z"/>
		<path class="st0" d="M179.1,106V95.7h-2.4v-1.4h2.4v-4h1.6v4h2.9v1.4h-2.9v10.1c0,1.2,0.5,2,1.5,2c0.7,0,1.3-0.3,1.6-0.7l0.6,1.2
			c-0.6,0.5-1.3,0.9-2.5,0.9C180,109.2,179.1,108,179.1,106z"/>
		<path class="st0" d="M188.8,112.5l-0.9-0.7c1-0.7,1.7-1.8,1.7-2.8c0,0-0.2,0-0.3,0c-0.7,0-1.2-0.5-1.2-1.3c0-0.7,0.6-1.3,1.3-1.3
			c0.8,0,1.5,0.7,1.5,1.9C190.9,110.1,189.9,111.7,188.8,112.5z"/>
		<path class="st0" d="M216,108.8l-5.8-6.9l-2.7,2.6v4.4H206v-20h1.6v13.8l8.5-8.3h2.1l-6.8,6.5l6.7,8L216,108.8L216,108.8z"/>
		<path class="st0" d="M222.2,90.8c0-0.7,0.6-1.2,1.2-1.2c0.7,0,1.2,0.5,1.2,1.2s-0.5,1.2-1.2,1.2C222.8,92.1,222.2,91.5,222.2,90.8
			z M222.6,108.8V94.3h1.6v14.5H222.6z"/>
		<path class="st0" d="M240.4,108.8V99c0-2.8-1.4-3.6-3.5-3.6c-1.9,0-3.8,1.2-4.7,2.5v11h-1.6V94.3h1.6v2.2c1.1-1.3,3.1-2.6,5.2-2.6
			c2.9,0,4.6,1.4,4.6,4.7v10.1h-1.6V108.8z"/>
		<path class="st0" d="M259,108.8v-2.3c-1,1.5-2.9,2.7-5,2.7c-3.8,0-6.5-2.9-6.5-7.6c0-4.6,2.6-7.6,6.5-7.6c2.1,0,3.9,1.1,5,2.7
			v-7.9h1.6v20C260.6,108.8,259,108.8,259,108.8z M259,105.2V98c-0.8-1.4-2.7-2.6-4.8-2.6c-3.2,0-5.1,2.7-5.1,6.2s1.9,6.2,5.1,6.2
			C256.3,107.8,258.2,106.6,259,105.2z"/>
		<path class="st0" d="M276.2,108.8v-1.7c-1.3,1.4-2.9,2.1-4.9,2.1c-2.5,0-5.1-1.7-5.1-4.8c0-3.2,2.6-4.8,5.1-4.8
			c2,0,3.7,0.7,4.9,2.1v-2.9c0-2.2-1.7-3.3-3.9-3.3c-1.8,0-3.2,0.6-4.6,2.1l-0.9-1.1c1.5-1.6,3.2-2.4,5.6-2.4c2.9,0,5.3,1.4,5.3,4.7
			V109h-1.5V108.8z M276.2,106v-3.2c-1-1.4-2.6-2-4.4-2c-2.4,0-4,1.5-4,3.6c0,2,1.6,3.6,4,3.6C273.5,108,275.2,107.3,276.2,106z"/>
		<path class="st0" d="M303.2,108.8V99c0-2.8-1.4-3.6-3.5-3.6c-1.9,0-3.8,1.2-4.7,2.5v11h-1.6V94.3h1.6v2.2c1.1-1.3,3.1-2.6,5.2-2.6
			c2.9,0,4.6,1.4,4.6,4.7v10.1h-1.6V108.8z"/>
		<path class="st0" d="M310.3,101.6c0-4.2,2.7-7.6,6.9-7.6c4.3,0,7,3.4,7,7.6s-2.7,7.6-7,7.6C313,109.2,310.3,105.8,310.3,101.6z
			 M322.6,101.6c0-3.2-1.9-6.2-5.3-6.2s-5.3,3-5.3,6.2s1.9,6.2,5.3,6.2C320.7,107.8,322.6,104.8,322.6,101.6z"/>
		<path class="st0" d="M330.1,106V95.7h-2.4v-1.4h2.4v-4h1.6v4h2.9v1.4h-2.9v10.1c0,1.2,0.5,2,1.5,2c0.7,0,1.3-0.3,1.6-0.7l0.6,1.2
			c-0.6,0.5-1.3,0.9-2.5,0.9C331.1,109.2,330.1,108,330.1,106z"/>
	</g>
</g>
</svg>
