<?xml version="1.0" encoding="utf-8"?>
<!-- Generator: Adobe Illustrator 27.4.0, SVG Export Plug-In . SVG Version: 6.00 Build 0)  -->
<svg version="1.1" id="Layer_1" xmlns="http://www.w3.org/2000/svg" xmlns:xlink="http://www.w3.org/1999/xlink" x="0px" y="0px"
	 viewBox="0 0 360 130" style="enable-background:new 0 0 360 130;" xml:space="preserve">
<style type="text/css">
	.st0{fill:#A386A6;}
</style>
<g>
	<path class="st0" d="M16.8,86.3l-5.3,1.4l-0.8-16.1h0.5c1.8,12.7,11.6,15.6,17,15.6c4.8,0,9.7-1.4,9.7-5.3
		c0-8.2-27.3-7.3-27.3-22.1c0-9.2,10-12.7,19.2-12.7c3,0,6.7,0.6,9.4,1.4l4.6-1.3l0.8,13.3h-0.5c-1.8-9.4-8.4-12.9-14.2-12.9
		c-5.3,0-8.3,2.5-8.3,5.3c0,8.6,26.8,6.3,26.8,21.1c0,9.6-9.5,13.7-20.1,13.7C25.4,87.8,21.4,87.3,16.8,86.3z"/>
	<path class="st0" d="M109.7,47.7h16.4v0.6c-5.3,0-7.6,4-11.8,12.5l-13.8,28L86.9,61.1L73.3,88.7L57.2,56.6
		c-2.9-5.8-4.9-8.3-9.2-8.3v-0.6h26.8v0.6c-5.5,0-3.7,4.8-1.4,9.5l7.1,14.6l6-12.1l-1.8-3.6c-2.9-5.8-3.8-8.3-7.4-8.3v-0.6h25.8v0.6
		c-5.2,0-4.4,4.8-2.2,9.5l6.8,14.6l5.7-11.6c3.3-6.7,4.3-12.5-3.8-12.5L109.7,47.7z"/>
	<path class="st0" d="M161.2,73.2c-3.3,8-10.1,14.7-20.6,14.7c-10.4,0-19.3-7.4-19.3-19.7s8.7-21,21.9-21c12.9,0,19.7,6.5,17.3,16.1
		h-25c0.3,10.7,6,15.3,13.2,15.3c3.8,0,9.3-1.4,12-5.6L161.2,73.2z M143.2,47.7c-6.5,0-7.7,9.1-7.7,14.5c0,0.1,0,0.2,0,0.2h11.7
		C148.4,57.7,149,47.7,143.2,47.7L143.2,47.7z"/>
	<path class="st0" d="M205,73.2c-3.3,8-10.1,14.7-20.6,14.7c-10.4,0-19.3-7.4-19.3-19.7s8.7-21,21.9-21c12.9,0,19.7,6.5,17.3,16.1
		h-25c0.3,10.7,6,15.3,13.2,15.3c3.8,0,9.3-1.4,12-5.6L205,73.2z M187,47.7c-6.5,0-7.7,9.1-7.7,14.5c0,0.1,0,0.2,0,0.2H191
		C192.2,57.7,192.8,47.7,187,47.7L187,47.7z"/>
	<path class="st0" d="M212.3,77.9V48.3H207v-0.6h1.1c6.2,0,11-1.1,13.8-3.5c2-2.6,3.4-7.8,3.7-11.5h0.6v15h8.3v0.6h-8.3v27.1
		c0,2.9,0.1,7.4,3.8,7.4c2,0,3.8-1.1,5.5-2.7l0.3,0.5c-3.9,4.3-8.9,7.3-14.7,7.3C215.3,87.8,212.3,83.8,212.3,77.9z"/>
	<path class="st0" d="M235.7,87.2v-0.6c5.3,0,6-1.5,6-8.7V59.1c0-5-0.3-7.7-6.8-6.2l-0.2-0.6l21-5l-0.2,8.6v22c0,7.2,0.7,8.7,6,8.7
		v0.6H235.7z M240.4,36c0-4.5,3.8-8.2,8.3-8.2c4.6,0,8.3,3.6,8.3,8.2s-3.7,8.3-8.3,8.3C244.2,44.4,240.4,40.6,240.4,36z"/>
	<path class="st0" d="M270,86.3l-5.3,1.4l-0.8-16.1h0.5c1.8,12.7,11.6,15.6,17.1,15.6c4.8,0,9.7-1.4,9.7-5.3
		c0-8.2-27.3-7.3-27.3-22.1c0-9.2,10-12.7,19.2-12.7c3,0,6.7,0.6,9.4,1.4l4.6-1.3l0.8,13.3h-0.5c-1.8-9.4-8.4-12.9-14.2-12.9
		c-5.3,0-8.3,2.5-8.3,5.3c0,8.6,26.8,6.3,26.8,21.1c0,9.6-9.5,13.7-20.1,13.7C278.5,87.8,274.6,87.3,270,86.3z"/>
	<path class="st0" d="M347.5,77.9c0,7.2,0.7,8.7,6,8.7v0.6h-24.2v-0.6c4.1,0,4.2-2,4.2-8.7V59.8c0-2,0-6.7-4.5-6.7
		c-2.1,0-4.6,1-6.8,2.9v21.9c0,5.4,0.1,8.7,4.3,8.7v0.6h-24.3v-0.6c5.3,0,6-1.5,6-8.7V39.7c0-5-0.3-7.7-6.8-6.2l-0.1-0.6l21-5
		L322,55.3c7.5-6.1,12.1-8.2,16.7-8.2c6.1,0,8.8,3.5,8.8,11.2V77.9z"/>
</g>
</svg>
